<?xml version="1.0" standalone="no"?>
<!DOCTYPE svg PUBLIC "-//W3C//DTD SVG 20010904//EN"
 "http://www.w3.org/TR/2001/REC-SVG-20010904/DTD/svg10.dtd">
<svg version="1.0" xmlns="http://www.w3.org/2000/svg"
 width="500.000000pt" height="500.000000pt" viewBox="0 0 500.000000 500.000000"
 preserveAspectRatio="xMidYMid meet">
<metadata>
Created by potrace 1.14, written by Peter Selinger 2001-2017
</metadata>
<g transform="translate(0.000000,500.000000) scale(0.100000,-0.100000)"
fill="#000000" stroke="none">
<path d="M150 2495 l0 -2355 1040 0 1040 0 0 854 0 855 58 11 c78 15 258 67
307 89 37 16 79 18 438 18 l397 1 0 -914 0 -914 715 0 715 0 0 2355 0 2355
-715 0 -715 0 0 -322 0 -321 -49 81 c-65 108 -100 152 -195 247 -116 115 -229
196 -385 275 l-78 40 -1287 0 -1286 0 0 -2355z m1550 1581 c173 -33 236 -52
346 -107 187 -93 283 -232 311 -449 27 -203 -27 -419 -130 -524 l-42 -42 -510
2 c-280 1 -513 2 -517 3 -5 0 -8 256 -8 567 l0 566 258 -5 c141 -3 273 -8 292
-11z"/>
<path d="M1515 3963 c-214 -79 -340 -269 -330 -498 9 -208 146 -388 347 -454
90 -30 230 -28 320 3 247 87 387 349 321 603 -42 163 -162 293 -321 349 -96
33 -243 32 -337 -3z m285 -161 c3 -7 5 -53 4 -102 l-1 -90 41 -1 c23 -1 69 -1
104 0 l63 1 -3 -117 -3 -118 -35 -2 c-19 -1 -65 -2 -101 -2 l-65 -1 0 -100 1
-100 -120 0 -120 0 2 100 3 99 -103 3 -102 3 0 115 0 115 50 2 c28 1 73 2 102
2 l52 1 -1 98 -2 97 45 5 c86 10 184 6 189 -8z"/>
</g>
</svg>
