<?xml version="1.0" standalone="no"?>
<!DOCTYPE svg PUBLIC "-//W3C//DTD SVG 20010904//EN"
 "http://www.w3.org/TR/2001/REC-SVG-20010904/DTD/svg10.dtd">
<svg version="1.0" xmlns="http://www.w3.org/2000/svg"
 width="800.000000pt" height="800.000000pt" viewBox="0 0 800.000000 800.000000"
 preserveAspectRatio="xMidYMid meet">
<metadata>
Created by potrace 1.14, written by Peter Selinger 2001-2017
</metadata>
<g transform="translate(0.000000,800.000000) scale(0.100000,-0.100000)"
fill="#000000" stroke="none">
<path d="M259 7723 c-1 -23 -1 -2683 0 -5370 l1 -2103 1685 0 1685 0 0 463 -1
462 -71 50 c-79 56 -94 69 -196 169 -63 61 -222 254 -222 270 0 3 -14 25 -30
50 -79 116 -176 369 -210 547 -46 241 -49 430 -8 669 34 202 130 467 218 596
16 25 30 47 30 50 0 20 175 230 250 299 88 82 99 91 168 140 l71 50 1 316 0
316 98 13 c53 7 122 19 152 27 30 8 69 18 85 23 17 4 54 17 82 29 616 247 982
870 925 1574 -25 313 -122 565 -327 846 -5 8 -59 64 -120 125 -174 176 -389
303 -610 361 -167 44 -161 44 -1952 45 -1615 0 -1703 -1 -1704 -17z"/>
<path d="M4400 7687 l0 -52 62 -45 c136 -98 301 -283 410 -460 272 -444 325
-1031 138 -1537 -11 -29 -24 -61 -28 -70 -5 -10 -22 -45 -37 -78 -94 -206
-305 -467 -483 -595 l-62 -45 0 -330 0 -331 -117 -12 c-182 -20 -287 -49 -443
-124 -189 -92 -334 -205 -472 -368 -140 -167 -253 -390 -317 -625 -63 -233
-61 -550 4 -803 66 -253 213 -517 385 -693 179 -183 411 -318 650 -380 56 -14
226 -39 270 -39 l40 0 2 -422 3 -423 1685 0 1685 0 3 3743 2 3742 -1690 0
-1690 0 0 -53z"/>
</g>
</svg>
