<svg id="visual" viewBox="0 0 960 350" width="960" height="350" xmlns="http://www.w3.org/2000/svg" xmlns:xlink="http://www.w3.org/1999/xlink" version="1.1"><rect x="0" y="0" width="960" height="350" fill="#00b660"></rect><path d="M0 189L17.8 183.3C35.7 177.7 71.3 166.3 106.8 159.5C142.3 152.7 177.7 150.3 213.2 155.5C248.7 160.7 284.3 173.3 320 181.5C355.7 189.7 391.3 193.3 426.8 190.7C462.3 188 497.7 179 533.2 174C568.7 169 604.3 168 640 161C675.7 154 711.3 141 746.8 139.7C782.3 138.3 817.7 148.7 853.2 152C888.7 155.3 924.3 151.7 942.2 149.8L960 148L960 351L942.2 351C924.3 351 888.7 351 853.2 351C817.7 351 782.3 351 746.8 351C711.3 351 675.7 351 640 351C604.3 351 568.7 351 533.2 351C497.7 351 462.3 351 426.8 351C391.3 351 355.7 351 320 351C284.3 351 248.7 351 213.2 351C177.7 351 142.3 351 106.8 351C71.3 351 35.7 351 17.8 351L0 351Z" fill="#009c43"></path><path d="M0 247L17.8 245.8C35.7 244.7 71.3 242.3 106.8 236C142.3 229.7 177.7 219.3 213.2 213.2C248.7 207 284.3 205 320 209.8C355.7 214.7 391.3 226.3 426.8 234.2C462.3 242 497.7 246 533.2 244.7C568.7 243.3 604.3 236.7 640 230.7C675.7 224.7 711.3 219.3 746.8 216.7C782.3 214 817.7 214 853.2 207C888.7 200 924.3 186 942.2 179L960 172L960 351L942.2 351C924.3 351 888.7 351 853.2 351C817.7 351 782.3 351 746.8 351C711.3 351 675.7 351 640 351C604.3 351 568.7 351 533.2 351C497.7 351 462.3 351 426.8 351C391.3 351 355.7 351 320 351C284.3 351 248.7 351 213.2 351C177.7 351 142.3 351 106.8 351C71.3 351 35.7 351 17.8 351L0 351Z" fill="#038434"></path><path d="M0 275L17.8 268.5C35.7 262 71.3 249 106.8 242C142.3 235 177.7 234 213.2 231.3C248.7 228.7 284.3 224.3 320 226C355.7 227.7 391.3 235.3 426.8 243.2C462.3 251 497.7 259 533.2 262C568.7 265 604.3 263 640 264.5C675.7 266 711.3 271 746.8 269.7C782.3 268.3 817.7 260.7 853.2 259.7C888.7 258.7 924.3 264.3 942.2 267.2L960 270L960 351L942.2 351C924.3 351 888.7 351 853.2 351C817.7 351 782.3 351 746.8 351C711.3 351 675.7 351 640 351C604.3 351 568.7 351 533.2 351C497.7 351 462.3 351 426.8 351C391.3 351 355.7 351 320 351C284.3 351 248.7 351 213.2 351C177.7 351 142.3 351 106.8 351C71.3 351 35.7 351 17.8 351L0 351Z" fill="#026d26"></path><path d="M0 288L17.8 285.7C35.7 283.3 71.3 278.7 106.8 283.8C142.3 289 177.7 304 213.2 303.3C248.7 302.7 284.3 286.3 320 286.3C355.7 286.3 391.3 302.7 426.8 307.2C462.3 311.7 497.7 304.3 533.2 297.2C568.7 290 604.3 283 640 286.2C675.7 289.3 711.3 302.7 746.8 304C782.3 305.3 817.7 294.7 853.2 289.3C888.7 284 924.3 284 942.2 284L960 284L960 351L942.2 351C924.3 351 888.7 351 853.2 351C817.7 351 782.3 351 746.8 351C711.3 351 675.7 351 640 351C604.3 351 568.7 351 533.2 351C497.7 351 462.3 351 426.8 351C391.3 351 355.7 351 320 351C284.3 351 248.7 351 213.2 351C177.7 351 142.3 351 106.8 351C71.3 351 35.7 351 17.8 351L0 351Z" fill="#005719"></path></svg>