<svg id="visual" viewBox="0 0 1980 540" width="1980" height="540" xmlns="http://www.w3.org/2000/svg" xmlns:xlink="http://www.w3.org/1999/xlink" version="1.1"><rect x="0" y="0" width="1980" height="540" fill="#790222"></rect><defs><linearGradient id="grad1_0" x1="72.7%" y1="0%" x2="100%" y2="100%"><stop offset="-23.33333333333333%" stop-color="#c8003b" stop-opacity="1"></stop><stop offset="123.33333333333334%" stop-color="#c8003b" stop-opacity="1"></stop></linearGradient></defs><defs><linearGradient id="grad1_1" x1="72.7%" y1="0%" x2="100%" y2="100%"><stop offset="-23.33333333333333%" stop-color="#c8003b" stop-opacity="1"></stop><stop offset="123.33333333333334%" stop-color="#a0012e" stop-opacity="1"></stop></linearGradient></defs><defs><linearGradient id="grad1_2" x1="72.7%" y1="0%" x2="100%" y2="100%"><stop offset="-23.33333333333333%" stop-color="#790222" stop-opacity="1"></stop><stop offset="123.33333333333334%" stop-color="#a0012e" stop-opacity="1"></stop></linearGradient></defs><defs><linearGradient id="grad2_0" x1="0%" y1="0%" x2="27.3%" y2="100%"><stop offset="-23.33333333333333%" stop-color="#c8003b" stop-opacity="1"></stop><stop offset="123.33333333333334%" stop-color="#c8003b" stop-opacity="1"></stop></linearGradient></defs><defs><linearGradient id="grad2_1" x1="0%" y1="0%" x2="27.3%" y2="100%"><stop offset="-23.33333333333333%" stop-color="#a0012e" stop-opacity="1"></stop><stop offset="123.33333333333334%" stop-color="#c8003b" stop-opacity="1"></stop></linearGradient></defs><defs><linearGradient id="grad2_2" x1="0%" y1="0%" x2="27.3%" y2="100%"><stop offset="-23.33333333333333%" stop-color="#a0012e" stop-opacity="1"></stop><stop offset="123.33333333333334%" stop-color="#790222" stop-opacity="1"></stop></linearGradient></defs><g transform="translate(1980, 0)"><path d="M0 432C-43.1 387.1 -86.2 342.2 -132.4 319.7C-178.6 297.2 -227.8 297.1 -276.5 276.5C-325.2 255.9 -373.3 214.8 -399.1 165.3C-424.9 115.8 -428.5 57.9 -432 0L0 0Z" fill="#8c0228"></path><path d="M0 288C-28.7 258.1 -57.5 228.1 -88.3 213.1C-119.1 198.1 -151.9 198 -184.3 184.3C-216.8 170.6 -248.9 143.2 -266.1 110.2C-283.3 77.2 -285.6 38.6 -288 0L0 0Z" fill="#b40135"></path><path d="M0 144C-14.4 129 -28.7 114.1 -44.1 106.6C-59.5 99.1 -75.9 99 -92.2 92.2C-108.4 85.3 -124.4 71.6 -133 55.1C-141.6 38.6 -142.8 19.3 -144 0L0 0Z" fill="#c8003b"></path></g><g transform="translate(0, 540)"><path d="M0 -432C36.9 -380 73.9 -328.1 130.5 -315C187.1 -302 263.5 -327.9 305.5 -305.5C347.5 -283.1 355.1 -212.4 370.5 -153.5C385.8 -94.5 408.9 -47.3 432 0L0 0Z" fill="#8c0228"></path><path d="M0 -288C24.6 -253.4 49.2 -218.7 87 -210C124.8 -201.3 175.6 -218.6 203.6 -203.6C231.6 -188.7 236.7 -141.6 247 -102.3C257.2 -63 272.6 -31.5 288 0L0 0Z" fill="#b40135"></path><path d="M0 -144C12.3 -126.7 24.6 -109.4 43.5 -105C62.4 -100.7 87.8 -109.3 101.8 -101.8C115.8 -94.4 118.4 -70.8 123.5 -51.2C128.6 -31.5 136.3 -15.8 144 0L0 0Z" fill="#c8003b"></path></g></svg>